<?xml version="1.0" encoding="UTF-8"?>
<!DOCTYPE svg PUBLIC "-//W3C//DTD SVG 1.1//EN" "http://www.w3.org/Graphics/SVG/1.1/DTD/svg11.dtd">
<!-- Creator: CorelDRAW 2018 (64-Bit) -->
<svg xmlns="http://www.w3.org/2000/svg" xml:space="preserve" width="30mm" height="30mm" version="1.1" style="shape-rendering:geometricPrecision; text-rendering:geometricPrecision; image-rendering:optimizeQuality; fill-rule:evenodd; clip-rule:evenodd"
viewBox="0 0 3000 3000"
 xmlns:xlink="http://www.w3.org/1999/xlink">
 <defs>
  <style type="text/css">
   <![CDATA[
    .fil0 {fill:#B30000}
   ]]>
  </style>
 </defs>
 <g id="Слой_x0020_1">
  <metadata id="CorelCorpID_0Corel-Layer"/>
  <path class="fil0" d="M1976.25 867.65l0 71.44 -275.17 -0.01 0 -71.43 275.17 0zm-116.42 158.75l-158.75 0 0 71.44 158.75 -0.01 0 -71.43zm-158.75 230.18l275.17 0 0 -74.08 -275.17 0 0 74.08zm158.75 84.67l-158.75 0 0 71.44 158.75 0 0 -71.44zm-158.75 227.54l275.17 0 0 -71.44 -275.17 0 0 71.44zm42.34 412.75c0,201.08 -161.4,365.13 -359.83,365.13 -198.43,0 -359.84,-164.05 -359.84,-365.13 0,-129.65 68.79,-248.71 177.27,-314.85l0 -828.15c0,-103.19 82.02,-185.21 182.56,-185.21 100.54,0 182.56,82.02 182.56,185.21l0 828.15c111.13,66.14 177.28,185.21 177.28,314.85zm-71.44 0c0,-111.13 -60.85,-211.67 -158.75,-261.94l-18.52 -10.58 0 -870.48c0,-63.5 -50.27,-113.77 -111.13,-113.77 -60.85,0 -111.13,50.27 -111.13,113.77l0 870.48 -18.52 10.58c-97.9,50.27 -158.75,150.81 -158.75,261.94 0,161.4 129.65,293.69 288.4,293.69 158.75,0 288.4,-132.29 288.4,-293.69zm-58.21 0c0,129.65 -103.19,232.83 -230.19,232.83 -127,0 -230.19,-105.83 -230.19,-232.83 0,-105.83 68.79,-198.44 169.33,-224.9l13.23 -2.65 0.01 -447.14 92.6 0 0 444.5 13.23 2.65c100.54,29.1 171.98,121.71 171.98,227.54zm-219.6 -156.1c-5.29,-23.81 -29.1,-39.69 -55.56,-34.4 -87.31,21.17 -148.17,97.9 -148.17,187.85 0,26.46 21.17,47.63 44.98,47.63 26.46,0 44.98,-21.17 44.98,-47.63 0,-44.98 31.75,-87.31 76.73,-97.9 29.1,-5.28 42.33,-29.09 37.04,-55.55z"/>
 </g>
</svg>
