<?xml version="1.0" encoding="utf-8"?>
<!-- Generator: Adobe Illustrator 17.1.0, SVG Export Plug-In . SVG Version: 6.00 Build 0)  -->
<!DOCTYPE svg PUBLIC "-//W3C//DTD SVG 1.1//EN" "http://www.w3.org/Graphics/SVG/1.1/DTD/svg11.dtd">
<svg version="1.1" id="Layer_1" xmlns="http://www.w3.org/2000/svg" xmlns:xlink="http://www.w3.org/1999/xlink" x="0px" y="0px"
	 width="64px" height="64px" viewBox="0 0 64 64" enable-background="new 0 0 64 64" xml:space="preserve">
<path fill="#0476b9" d="M62.6,10.9l-0.8-1.8L51.2,19.7h-7.1l0-7.1L54.6,2.1l-1.9-0.8C50.6,0.4,48.4,0,46.1,0c-9.9,0-17.9,8.1-17.9,18
	c0,2,0.3,3.9,1,5.8l-26.9,27C0.8,52.2,0,54.2,0,56.3c0,2.1,0.8,4,2.3,5.5C3.7,63.2,5.6,64,7.7,64c2.1,0,4-0.8,5.4-2.3l26.7-26.9
	c2,0.7,4.1,1.1,6.2,1.1C56,36,64,27.9,64,18C64,15.6,63.5,13.2,62.6,10.9z M46.1,33.3c-2.1,0-4.1-0.4-6-1.2l-0.8-0.4l-28,28.1
	c-1.9,1.9-5.2,1.9-7.1,0c-0.9-0.9-1.5-2.2-1.5-3.5c0-1.3,0.5-2.6,1.5-3.5l28.1-28.3L32,23.6c-0.7-1.8-1.1-3.7-1.1-5.6
	c0-8.4,6.8-15.3,15.2-15.3c1.2,0,2.4,0.1,3.6,0.4l-8.3,8.4l0,10.9h10.9l8.5-8.5c0.4,1.3,0.5,2.7,0.5,4
	C61.3,26.4,54.5,33.3,46.1,33.3z M9.7,56.1c0,1.1-0.9,2-2,2c-1.1,0-2-0.9-2-2c0-1.1,0.9-2,2-2C8.8,54.1,9.7,55,9.7,56.1z"/>
</svg>
