<?xml version="1.0" encoding="UTF-8"?>
<!DOCTYPE svg PUBLIC "-//W3C//DTD SVG 1.1//EN" "http://www.w3.org/Graphics/SVG/1.1/DTD/svg11.dtd">
<!-- Creator: CorelDRAW 2018 (64-Bit) -->
<svg xmlns="http://www.w3.org/2000/svg" xml:space="preserve" width="30mm" height="30mm" version="1.1" style="shape-rendering:geometricPrecision; text-rendering:geometricPrecision; image-rendering:optimizeQuality; fill-rule:evenodd; clip-rule:evenodd"
viewBox="0 0 3000 3000"
 xmlns:xlink="http://www.w3.org/1999/xlink"
 enable-background="new 0 0 66 58">
 <defs>
  <style type="text/css">
   <![CDATA[
    .fil0 {fill:#B30000}
   ]]>
  </style>
 </defs>
 <g id="Слой_x0020_1">
  <metadata id="CorelCorpID_0Corel-Layer"/>
  <g id="_2123496669280">
   <g>
    <path class="fil0" d="M1391.52 1354.99c-21.17,0 -37.04,15.88 -37.04,37.04l0 145.52c0,21.17 15.88,37.04 37.04,37.04 21.17,0 37.04,-15.88 37.04,-37.04l0 -145.52c-2.64,-21.17 -18.52,-37.04 -37.04,-37.04zm836.07 693.2l0 -1243.53 -34.39 0 -431.27 -71.44c-10.58,-2.65 -21.17,0 -29.1,7.94 -7.94,7.94 -13.23,15.88 -13.23,29.1l0 37.04 -947.2 0 0 1243.53 -145.52 0 0 108.48c0,58.21 47.62,108.48 108.47,108.48l1529.29 0c60.85,0 108.48,-50.27 108.48,-108.48l0 -108.48 -145.53 0 0 -2.64zm-436.56 -1235.6l362.48 60.85 0 1180.03 -362.48 60.86 0 -1301.74zm-254 66.15l182.56 0 0 1169.45 -182.56 0 0 -1169.45zm-693.2 0l619.13 0 0 1169.45 -619.13 0 0 -1169.45zm-108.48 1314.97c-21.17,0 -37.04,-15.88 -37.04,-37.04l0 -37.04 37.04 0c0,21.17 15.88,37.04 37.04,37.04 21.17,0 37.04,-15.88 37.04,-37.04l71.45 0c0,21.17 15.88,37.04 37.04,37.04 21.17,0 37.04,-15.88 37.04,-37.04l74.08 0c0,21.17 15.88,37.04 37.04,37.04 21.17,0 37.04,-15.88 37.04,-37.04l74.09 0c0,21.17 15.88,37.04 37.04,37.04 21.17,0 37.04,-15.88 37.04,-37.04l71.44 0c0,21.17 15.88,37.04 37.04,37.04 21.16,0 37.04,-15.88 37.04,-37.04l74.09 0c0,21.17 15.88,37.04 37.03,37.04 21.17,0 37.04,-15.88 37.04,-37.04l74.08 0c0,21.17 15.88,37.04 37.04,37.04 21.17,0 37.04,-15.88 37.04,-37.04l37.05 0 0 37.04c0,10.58 5.29,21.17 13.23,29.1 5.29,5.29 15.88,7.94 23.81,7.94l-1031.87 0zm1563.68 -34.4c0,21.17 -15.88,37.04 -37.04,37.04l-508 0c2.65,0 2.65,0 5.29,0l293.69 -50.27c5.29,7.94 15.88,13.23 29.1,13.23 15.88,0 29.1,-10.58 34.4,-23.81l74.08 -13.23c0,21.17 15.88,37.04 37.04,37.04 21.17,0 37.04,-15.88 37.04,-37.04l37.05 0 0 37.04 -2.65 0zm-436.56 -806.97c-21.17,0 -37.04,15.88 -37.04,37.04l0 145.52c0,21.17 15.88,37.04 37.04,37.04 21.17,0 37.04,-15.88 37.04,-37.04l0 -145.52c0,-21.16 -15.87,-37.04 -37.04,-37.04zm-944.55 -291.04c10.58,0 18.52,-2.65 26.46,-10.58l74.08 -74.08c13.23,-13.23 13.23,-37.04 0,-52.92 -13.23,-13.23 -37.04,-13.23 -50.27,0l-76.73 76.73c-13.23,13.23 -13.23,37.04 0,52.92 7.94,5.29 15.87,7.93 26.46,7.93zm193.14 -134.94l-219.6 219.61c-13.23,13.23 -13.23,37.04 0,52.92 7.94,7.94 15.88,10.58 26.46,10.58 10.58,0 18.52,-2.65 26.46,-10.58l219.6 -219.6c13.23,-13.23 13.23,-37.04 0,-52.92 -15.88,-13.23 -39.69,-13.23 -52.92,-0.01z"/>
   </g>
  </g>
 </g>
</svg>
