<?xml version="1.0" encoding="utf-8"?>
<!-- Generator: Adobe Illustrator 17.1.0, SVG Export Plug-In . SVG Version: 6.00 Build 0)  -->
<!DOCTYPE svg PUBLIC "-//W3C//DTD SVG 1.1//EN" "http://www.w3.org/Graphics/SVG/1.1/DTD/svg11.dtd">
<svg version="1.1" id="Layer_1" xmlns="http://www.w3.org/2000/svg" xmlns:xlink="http://www.w3.org/1999/xlink" x="0px" y="0px"
	 width="65px" height="56px" viewBox="0 0 65 56" enable-background="new 0 0 65 56" xml:space="preserve">
<g>
	<path fill="#0476b9" d="M38.3,19.9V2c0-1.1-0.9-2-2-2c-1.1,0-2,0.9-2,2v0.2c-0.3,0.1-0.7,0.3-1.1,0.5l-13.7,8.6
		c-1.5,0.9-3.6,2.2-5.5,3.5H6.7c-3.7,0-6.7,3-6.7,6.7v13.2c0,3.7,3,6.7,6.7,6.7H14c1.9,1.2,4,2.5,5.5,3.5l13.7,8.6
		c0.4,0.2,0.7,0.4,1.1,0.5V54c0,1.1,0.9,2,2,2c1.1,0,2-0.9,2-2V36.1c2.4-1.9,4-4.8,4-8.1C42.2,24.7,40.7,21.8,38.3,19.9z M11.5,38.6
		H6.7c-2.2,0-4-1.8-4-4V21.4c0-2.2,1.8-4,4-4h4.7L11.5,38.6L11.5,38.6L11.5,38.6z M34.2,50.8L34.2,50.8l-13.3-8.3l-5-3.1l-1.8-1.1
		V17.7l0.9-0.5l5.9-3.7l13.3-8.3V50.8L34.2,50.8L34.2,50.8z M65,22.5l-1.9-1.9l-5.7,5.6l-5.7-5.6l-1.9,1.9l5.7,5.6l-5.7,5.6l1.9,1.9
		l5.7-5.6l5.7,5.6l1.9-1.9l-5.7-5.6L65,22.5z"/>
</g>
</svg>
