<?xml version="1.0" encoding="UTF-8"?>
<!DOCTYPE svg PUBLIC "-//W3C//DTD SVG 1.1//EN" "http://www.w3.org/Graphics/SVG/1.1/DTD/svg11.dtd">
<!-- Creator: CorelDRAW 2018 (64-Bit) -->
<svg xmlns="http://www.w3.org/2000/svg" xml:space="preserve" width="30mm" height="30mm" version="1.1" style="shape-rendering:geometricPrecision; text-rendering:geometricPrecision; image-rendering:optimizeQuality; fill-rule:evenodd; clip-rule:evenodd"
viewBox="0 0 3000 3000"
 xmlns:xlink="http://www.w3.org/1999/xlink"
 enable-background="new 0 0 65 56">
 <defs>
  <style type="text/css">
   <![CDATA[
    .fil0 {fill:#B30000}
   ]]>
  </style>
 </defs>
 <g id="Слой_x0020_1">
  <metadata id="CorelCorpID_0Corel-Layer"/>
  <g id="_2089022145856">
   <g>
    <path class="fil0" d="M1653.46 1285.69l0 -473.61c0,-29.1 -23.81,-52.92 -52.92,-52.92 -29.1,0 -52.92,23.81 -52.92,52.92l0 5.29c-7.94,2.65 -18.52,7.94 -29.1,13.23l-362.48 227.54c-39.69,23.81 -95.25,58.21 -145.52,92.6l-193.15 0.01c-97.9,0 -177.27,79.38 -177.27,177.27l0 349.25c0,97.9 79.38,177.27 177.27,177.27l193.15 0c50.27,31.75 105.83,66.15 145.52,92.6l362.48 227.54c10.58,5.29 18.52,10.58 29.1,13.23l0.01 0.01c0,29.1 23.81,52.92 52.92,52.92 29.1,0 52.92,-23.81 52.92,-52.92l-0.01 -473.61c63.5,-50.27 105.83,-127 105.83,-214.31 -2.64,-87.31 -42.33,-164.04 -105.83,-214.31zm-709.09 494.77l-127 0c-58.21,0 -105.83,-47.63 -105.83,-105.83l0 -349.26c0,-58.21 47.63,-105.83 105.83,-105.83l124.36 0 2.64 560.92 0 0 0 0zm600.61 322.79l0 0 -351.9 -219.6 -132.29 -82.02 -47.63 -29.1 0.01 -545.05 23.81 -13.23 156.1 -97.9 351.9 -219.6 0 1206.5 0 0 0 0zm814.92 -748.77l-50.27 -50.27 -150.81 148.17 -150.81 -148.17 -50.27 50.27 150.81 148.17 -150.81 148.17 50.27 50.27 150.81 -148.17 150.81 148.17 50.27 -50.27 -150.81 -148.17 150.81 -148.17z"/>
   </g>
  </g>
 </g>
</svg>
