<?xml version="1.0" encoding="utf-8"?>
<!-- Generator: Adobe Illustrator 17.1.0, SVG Export Plug-In . SVG Version: 6.00 Build 0)  -->
<!DOCTYPE svg PUBLIC "-//W3C//DTD SVG 1.1//EN" "http://www.w3.org/Graphics/SVG/1.1/DTD/svg11.dtd">
<svg version="1.1" id="Layer_1" xmlns="http://www.w3.org/2000/svg" xmlns:xlink="http://www.w3.org/1999/xlink" x="0px" y="0px"
	 width="66px" height="58px" viewBox="0 0 66 58" enable-background="new 0 0 66 58" xml:space="preserve">
<g>
	<path fill="#0476b9" d="M28.9,23.5c-0.8,0-1.4,0.6-1.4,1.4v5.5c0,0.8,0.6,1.4,1.4,1.4c0.8,0,1.4-0.6,1.4-1.4v-5.5
		C30.2,24.1,29.6,23.5,28.9,23.5z M60.5,49.7v-47h-1.3L42.9,0c-0.4-0.1-0.8,0-1.1,0.3c-0.3,0.3-0.5,0.6-0.5,1.1v1.4H5.5v47H0v4.1
		C0,56.1,1.8,58,4.1,58h57.8c2.3,0,4.1-1.9,4.1-4.1v-4.1H60.5z M44,3l13.7,2.3v44.6L44,52.2V3z M34.4,5.5h6.9v44.2h-6.9V5.5z
		 M8.2,5.5h23.4v44.2H8.2V5.5z M4.1,55.2c-0.8,0-1.4-0.6-1.4-1.4v-1.4h1.4c0,0.8,0.6,1.4,1.4,1.4c0.8,0,1.4-0.6,1.4-1.4h2.7
		c0,0.8,0.6,1.4,1.4,1.4c0.8,0,1.4-0.6,1.4-1.4h2.8c0,0.8,0.6,1.4,1.4,1.4c0.8,0,1.4-0.6,1.4-1.4h2.8c0,0.8,0.6,1.4,1.4,1.4
		c0.8,0,1.4-0.6,1.4-1.4h2.7c0,0.8,0.6,1.4,1.4,1.4s1.4-0.6,1.4-1.4h2.8c0,0.8,0.6,1.4,1.4,1.4c0.8,0,1.4-0.6,1.4-1.4h2.8
		c0,0.8,0.6,1.4,1.4,1.4c0.8,0,1.4-0.6,1.4-1.4h1.4v1.4c0,0.4,0.2,0.8,0.5,1.1c0.2,0.2,0.6,0.3,0.9,0.3H4.1z M63.2,53.9
		c0,0.8-0.6,1.4-1.4,1.4H42.6c0.1,0,0.1,0,0.2,0l11.1-1.9c0.2,0.3,0.6,0.5,1.1,0.5c0.6,0,1.1-0.4,1.3-0.9l2.8-0.5
		c0,0.8,0.6,1.4,1.4,1.4c0.8,0,1.4-0.6,1.4-1.4h1.4V53.9z M46.7,23.4c-0.8,0-1.4,0.6-1.4,1.4v5.5c0,0.8,0.6,1.4,1.4,1.4
		c0.8,0,1.4-0.6,1.4-1.4v-5.5C48.1,24,47.5,23.4,46.7,23.4z M11,12.4c0.4,0,0.7-0.1,1-0.4l2.8-2.8c0.5-0.5,0.5-1.4,0-2
		c-0.5-0.5-1.4-0.5-1.9,0L10,10.1c-0.5,0.5-0.5,1.4,0,2C10.3,12.3,10.6,12.4,11,12.4z M18.3,7.3L10,15.6c-0.5,0.5-0.5,1.4,0,2
		c0.3,0.3,0.6,0.4,1,0.4c0.4,0,0.7-0.1,1-0.4l8.3-8.3c0.5-0.5,0.5-1.4,0-2C19.7,6.8,18.8,6.8,18.3,7.3z"/>
</g>
</svg>
