<?xml version="1.0" encoding="UTF-8"?>
<!DOCTYPE svg PUBLIC "-//W3C//DTD SVG 1.1//EN" "http://www.w3.org/Graphics/SVG/1.1/DTD/svg11.dtd">
<!-- Creator: CorelDRAW 2018 (64-Bit) -->
<svg xmlns="http://www.w3.org/2000/svg" xml:space="preserve" width="30mm" height="30mm" version="1.1" style="shape-rendering:geometricPrecision; text-rendering:geometricPrecision; image-rendering:optimizeQuality; fill-rule:evenodd; clip-rule:evenodd"
viewBox="0 0 3000 3000"
 xmlns:xlink="http://www.w3.org/1999/xlink"
 enable-background="new 0 0 64 64">
 <defs>
  <style type="text/css">
   <![CDATA[
    .fil0 {fill:#B30000}
   ]]>
  </style>
 </defs>
 <g id="Слой_x0020_1">
  <metadata id="CorelCorpID_0Corel-Layer"/>
  <g id="_2123500947840">
   <path class="fil0" d="M2309.63 941.73l-21.17 -47.63 -280.46 280.46 -187.85 0 0 -187.85 277.81 -277.81 -50.27 -21.17c-55.56,-23.81 -113.77,-34.4 -174.63,-34.4 -261.94,0 -473.6,214.31 -473.6,476.25 0,52.92 7.94,103.19 26.46,153.46l-711.73 714.37c-39.69,37.05 -60.86,89.97 -60.86,145.53 0,55.56 21.17,105.83 60.85,145.52 37.05,37.04 87.32,58.21 142.88,58.21 55.56,0 105.83,-21.17 142.88,-60.85l706.44 -711.73c52.92,18.52 108.48,29.1 164.04,29.1 264.58,2.64 476.25,-211.67 476.25,-473.61 0,-63.5 -13.23,-127 -37.04,-187.85zm-436.57 592.67c-55.56,0 -108.48,-10.58 -158.75,-31.75l-21.17 -10.58 -740.83 743.48c-50.27,50.27 -137.58,50.27 -187.85,0 -23.81,-23.81 -39.69,-58.21 -39.69,-92.6 0,-34.4 13.23,-68.79 39.69,-92.6l743.48 -748.77 -7.94 -23.83c-18.52,-47.63 -29.1,-97.9 -29.1,-148.17 0,-222.25 179.92,-404.81 402.17,-404.81 31.75,0 63.5,2.65 95.25,10.58l-219.6 222.25 0 288.4 288.38 0 224.9 -224.9c10.58,34.4 13.23,71.44 13.23,105.83 0,224.9 -179.92,407.47 -402.17,407.47zm-963.08 603.25c0,29.1 -23.81,52.92 -52.92,52.92 -29.1,0 -52.92,-23.81 -52.92,-52.92 0,-29.1 23.81,-52.92 52.92,-52.92 29.11,0 52.92,23.81 52.92,52.92z"/>
  </g>
 </g>
</svg>
