<?xml version="1.0" encoding="utf-8"?>
<!-- Generator: Adobe Illustrator 17.1.0, SVG Export Plug-In . SVG Version: 6.00 Build 0)  -->
<!DOCTYPE svg PUBLIC "-//W3C//DTD SVG 1.1//EN" "http://www.w3.org/Graphics/SVG/1.1/DTD/svg11.dtd">
<svg version="1.1" id="Layer_1" xmlns="http://www.w3.org/2000/svg" xmlns:xlink="http://www.w3.org/1999/xlink" x="0px" y="0px"
	 width="36px" height="64px" viewBox="0 0 36 64" enable-background="new 0 0 36 64" xml:space="preserve">
<path fill="#0476b9" d="M36,8.1v2.7H25.6V8.1H36z M31.6,14.1h-6v2.7h6V14.1z M25.6,22.8H36V20H25.6V22.8z M31.6,26h-6v2.7h6V26z
	 M25.6,34.6H36v-2.7H25.6V34.6z M27.2,50.2c0,7.6-6.1,13.8-13.6,13.8S0,57.8,0,50.2c0-4.9,2.6-9.4,6.7-11.9V7c0-3.9,3.1-7,6.9-7
	s6.9,3.1,6.9,7v31.3C24.7,40.8,27.2,45.3,27.2,50.2z M24.5,50.2c0-4.2-2.3-8-6-9.9l-0.7-0.4V7c0-2.4-1.9-4.3-4.2-4.3
	c-2.3,0-4.2,1.9-4.2,4.3v32.9l-0.7,0.4c-3.7,1.9-6,5.7-6,9.9c0,6.1,4.9,11.1,10.9,11.1S24.5,56.3,24.5,50.2z M22.3,50.2
	c0,4.9-3.9,8.8-8.7,8.8c-4.8,0-8.7-4-8.7-8.8c0-4,2.6-7.5,6.4-8.5l0.5-0.1V24.7h3.5v16.8l0.5,0.1C19.6,42.7,22.3,46.2,22.3,50.2z
	 M14,44.3c-0.2-0.9-1.1-1.5-2.1-1.3c-3.3,0.8-5.6,3.7-5.6,7.1c0,1,0.8,1.8,1.7,1.8c1,0,1.7-0.8,1.7-1.8c0-1.7,1.2-3.3,2.9-3.7
	C13.7,46.2,14.2,45.3,14,44.3z"/>
</svg>
