<?xml version="1.0" encoding="UTF-8"?>
<!DOCTYPE svg PUBLIC "-//W3C//DTD SVG 1.1//EN" "http://www.w3.org/Graphics/SVG/1.1/DTD/svg11.dtd">
<!-- Creator: CorelDRAW 2018 (64-Bit) -->
<svg xmlns="http://www.w3.org/2000/svg" xml:space="preserve" width="30mm" height="30mm" version="1.1" style="shape-rendering:geometricPrecision; text-rendering:geometricPrecision; image-rendering:optimizeQuality; fill-rule:evenodd; clip-rule:evenodd"
viewBox="0 0 3000 3000"
 xmlns:xlink="http://www.w3.org/1999/xlink">
 <defs>
  <style type="text/css">
   <![CDATA[
    .str0 {stroke:black;stroke-width:100;stroke-miterlimit:22.9256}
    .fil0 {fill:none}
    .fil1 {fill:black}
   ]]>
  </style>
 </defs>
 <g id="Слой_x0020_1">
  <metadata id="CorelCorpID_0Corel-Layer"/>
  <g id="_2089025204544">
   <path class="fil0 str0" d="M1059.72 1199.59l0 -324.14c0,-60.33 49.36,-109.69 109.69,-109.69l881.69 0c60.33,0 109.69,49.36 109.69,109.69l0 1249.1c0,60.33 -49.36,109.69 -109.69,109.69l-881.69 0c-60.33,0 -109.69,-49.36 -109.69,-109.69l0 -328.53"/>
   <path class="fil1" d="M874.31 1321.69l387.18 0 0 -189.1c3.2,-39.39 22.6,-40.76 55.18,-11.09l191.92 164.5c71.01,60.86 142.02,121.73 213.04,182.6 21.37,23.83 12.46,49.44 -21.13,76.51l-191.91 164.49c-71.02,60.87 -142.03,121.74 -213.04,182.61 -24.59,15.56 -35.07,-8.69 -34.06,-65.42l0 -152.87 -387.18 0c-19.3,0 -35.09,-15.79 -35.09,-35.09l0 -282.05c0,-19.3 15.79,-35.09 35.09,-35.09z"/>
  </g>
 </g>
</svg>
