<?xml version="1.0" encoding="UTF-8"?>
<!DOCTYPE svg PUBLIC "-//W3C//DTD SVG 1.1//EN" "http://www.w3.org/Graphics/SVG/1.1/DTD/svg11.dtd">
<!-- Creator: CorelDRAW 2018 (64-Bit) -->
<svg xmlns="http://www.w3.org/2000/svg" xml:space="preserve" width="30mm" height="30mm" version="1.1" style="shape-rendering:geometricPrecision; text-rendering:geometricPrecision; image-rendering:optimizeQuality; fill-rule:evenodd; clip-rule:evenodd"
viewBox="0 0 3000 3000"
 xmlns:xlink="http://www.w3.org/1999/xlink">
 <defs>
  <style type="text/css">
   <![CDATA[
    .str0 {stroke:black;stroke-width:100;stroke-miterlimit:10}
    .fil0 {fill:none;fill-rule:nonzero}
   ]]>
  </style>
 </defs>
 <g id="Слой_x0020_1">
  <metadata id="CorelCorpID_0Corel-Layer"/>
  <g id="_2089025187104">
   <path class="fil0 str0" d="M2072.42 2116.05c37.93,-37.96 39.14,-98.54 2.73,-135l-212.03 -212.25c-16.59,-16.51 -39.57,-25.57 -64.85,-25.57 -26.62,0 -52.27,10.37 -70.4,28.5l-114.61 114.67 -30.98 -17.19c-68.13,-37.78 -161.5,-89.61 -260.07,-188.36 -98.97,-98.88 -150.82,-192.48 -188.73,-260.92l-16.94 -30.11 114.82 -114.84c37.98,-38.12 39.31,-98.78 2.87,-135.28l-212.13 -212.16c-16.49,-16.5 -39.51,-25.6 -64.74,-25.6 -26.6,0 -52.23,10.42 -70.41,28.57 -49.76,50.06 -76.87,73.93 -104.07,143.77 -11.03,29.03 -17.89,56.61 -21.08,84.29 -27.34,227.38 77.46,436.13 361.85,720.53 337.04,337.08 618.69,363.31 697,363.31 37.11,0 73.82,-8.91 108.31,-22.25 68.51,-26.67 94.1,-55.69 143.46,-104.11z"/>
   <path class="fil0 str0" d="M1796.34 1481.42c-15.97,-67.37 -50.05,-128.68 -98.68,-177.29 -46.16,-46.15 -104.14,-79.36 -167.5,-95.93"/>
   <path class="fil0 str0" d="M2013.48 1510.52c-13.39,-136.65 -71.16,-259.5 -166.95,-355.38 -85.7,-85.73 -195.22,-141.68 -316.57,-161.74"/>
   <path class="fil0 str0" d="M2242.4 1505.23c-14.82,-193.86 -97.97,-375.63 -234.15,-511.83 -140.61,-140.62 -327.9,-224.39 -527.39,-235.79"/>
  </g>
 </g>
</svg>
