<?xml version="1.0" encoding="UTF-8"?>
<!DOCTYPE svg PUBLIC "-//W3C//DTD SVG 1.1//EN" "http://www.w3.org/Graphics/SVG/1.1/DTD/svg11.dtd">
<!-- Creator: CorelDRAW X8 -->
<svg xmlns="http://www.w3.org/2000/svg" xml:space="preserve" width="30mm" height="30mm" version="1.1" style="shape-rendering:geometricPrecision; text-rendering:geometricPrecision; image-rendering:optimizeQuality; fill-rule:evenodd; clip-rule:evenodd"
viewBox="0 0 3000 3000"
 xmlns:xlink="http://www.w3.org/1999/xlink">
 <defs>
  <style type="text/css">
   <![CDATA[
    .str0 {stroke:white;stroke-width:105.83}
    .fil0 {fill:none;fill-rule:nonzero}
   ]]>
  </style>
 </defs>
 <g id="Слой_x0020_1">
  <metadata id="CorelCorpID_0Corel-Layer"/>
  <g id="_2388578643632">
   <path class="fil0 str0" d="M2464 2537c64,-64 66,-166 4,-227l-357 -357c-28,-28 -66,-43 -109,-43 -45,0 -88,17 -118,48l-193 193 -52 -29c-115,-64 -272,-151 -438,-317 -167,-167 -254,-325 -318,-440l-29 -51 194 -193c64,-64 66,-166 5,-228l-358 -357c-27,-28 -66,-43 -109,-43 -44,0 -88,18 -118,48 -84,84 -130,125 -175,242 -19,49 -31,96 -36,142 -46,383 130,734 609,1213 568,568 1042,612 1174,612 62,0 124,-15 182,-37 116,-45 159,-94 242,-176z"/>
   <path class="fil0 str0" d="M1999 1469c-27,-114 -84,-217 -166,-299 -78,-77 -176,-133 -282,-161"/>
   <path class="fil0 str0" d="M2365 1518c-23,-230 -120,-437 -282,-599 -144,-144 -328,-238 -533,-272"/>
   <path class="fil0 str0" d="M2750 1509c-25,-327 -165,-633 -394,-862 -237,-237 -552,-378 -888,-397"/>
  </g>
 </g>
</svg>
